<svg width="1209" height="1080" viewBox="0 0 1209 1080" fill="none" xmlns="http://www.w3.org/2000/svg">
<g filter="url(#filter0_d_82_294)">
<path d="M1162.86 684.7L476.05 1052.92C467.14 1052.74 460.35 1051.64 457.56 1045.59C454.48 1038.9 454.53 1037.66 454.51 1037.38L391.42 366.37C387.91 357.47 397.95 335.46 410.9 330.81L1147.28 50.1202C1155.36 46.9602 1163.78 46.5902 1168.88 48.7602C1169.99 49.2302 1176.56 54.8402 1177.79 56.5002C1185.55 66.9702 1184.86 70.4302 1184.55 82.8002L1169.88 667.78C1169.61 674.72 1168.88 681.29 1162.86 684.68V684.7Z" stroke="#93B5C6" stroke-width="8" stroke-miterlimit="10"/>
<path d="M410.31 567.41C148.54 684.6 40.37 731.53 31.75 733.03C31.19 733.13 27.29 733.69 23.48 736.48C18.43 740.17 14.81 746.84 15.21 753.03C15.67 760.24 21.5 765.5 24.86 768.2C59.81 796.23 405.81 1011.08 422.03 1027.47C422.58 1028.03 424.95 1030.57 428.93 1032.3C436.87 1035.74 445.9 1033.63 453.82 1030.1" stroke="#93B5C6" stroke-width="8" stroke-miterlimit="10"/>
<path d="M15.2 753.03L27.44 786.47L411.86 1038.11C415.86 1040.73 420.31 1042.58 424.98 1043.59L433.28 1045.37C436.2 1046 439.18 1046.31 442.17 1046.31H456.28" stroke="#93B5C6" stroke-width="8" stroke-miterlimit="10"/>
<path d="M265.67 851.741L297.75 835.481C299.18 834.751 300.89 834.831 302.25 835.691L326.62 851.101C328.52 852.301 328.43 855.111 326.45 856.181L295.52 872.921C293.62 873.951 291.31 873.831 289.53 872.631L265.39 856.331C263.7 855.191 263.86 852.661 265.68 851.741H265.67Z" stroke="#93B5C6" stroke-width="4" stroke-miterlimit="10"/>
<path d="M311.08 829.72L343.16 813.46C344.59 812.73 346.3 812.81 347.66 813.67L372.03 829.08C373.93 830.28 373.84 833.09 371.86 834.16L340.93 850.9C339.03 851.93 336.72 851.81 334.94 850.61L310.8 834.31C309.11 833.17 309.27 830.64 311.09 829.72H311.08Z" stroke="#93B5C6" stroke-width="4" stroke-miterlimit="10"/>
<path d="M357.49 806.6L389.57 790.34C391 789.61 392.71 789.69 394.07 790.55L418.44 805.96C420.34 807.16 420.25 809.97 418.27 811.04L387.34 827.78C385.44 828.81 383.13 828.69 381.35 827.49L357.21 811.19C355.52 810.05 355.68 807.52 357.5 806.6H357.49Z" stroke="#93B5C6" stroke-width="4" stroke-miterlimit="10"/>
<path d="M427.49 770.33L405.07 784.97C403.47 786.01 403.46 788.36 405.05 789.41L432.91 807.89" stroke="#93B5C6" stroke-width="4" stroke-miterlimit="10"/>
<path d="M304.62 876.32L410.52 821.39C412.03 820.61 413.86 820.83 415.13 821.95L434.08 838.53L436.23 843.05L332.68 895.53C330.9 896.43 328.79 896.34 327.1 895.28L304.43 881.11C302.62 879.98 302.73 877.31 304.62 876.33V876.32Z" stroke="#93B5C6" stroke-width="4" stroke-miterlimit="10"/>
<path d="M436.23 849.051L340.38 899.221C338.43 900.241 338.23 902.961 340.01 904.251L362.8 920.771C364.04 921.671 365.69 921.791 367.05 921.081L439.98 882.951" stroke="#93B5C6" stroke-width="4" stroke-miterlimit="10"/>
<path d="M439.98 891.181L376.65 923.991C375.19 924.751 375.08 926.791 376.45 927.701L401.43 944.331C402.92 945.321 404.84 945.371 406.38 944.451L443.67 922.251" stroke="#93B5C6" stroke-width="4" stroke-miterlimit="10"/>
<path d="M443.67 933.04L415.21 948.87C413.7 949.71 413.59 951.83 415 952.82L448.76 976.49" stroke="#93B5C6" stroke-width="4" stroke-miterlimit="10"/>
<path d="M867.01 636.131L807.13 667.281C805.43 668.171 804.38 669.951 804.45 671.871L806.9 747.911C806.98 750.281 809.51 751.751 811.6 750.631L868.45 720.281C870.18 719.361 871.25 717.561 871.25 715.611V638.711C871.25 636.531 868.93 635.121 867 636.131H867.01Z" stroke="#93B5C6" stroke-width="8" stroke-miterlimit="10"/>
<path d="M424.56 718.97L1177.5 363.94" stroke="#93B5C6" stroke-width="8" stroke-miterlimit="10"/>
<path d="M412.26 588.141L272.53 654.531L424.56 744.291" stroke="#93B5C6" stroke-width="8" stroke-miterlimit="10"/>
</g>
<defs>
<filter id="filter0_d_82_294" x="-4" y="0" width="1216.11" height="1088" filterUnits="userSpaceOnUse" color-interpolation-filters="sRGB">
<feFlood flood-opacity="0" result="BackgroundImageFix"/>
<feColorMatrix in="SourceAlpha" type="matrix" values="0 0 0 0 0 0 0 0 0 0 0 0 0 0 0 0 0 0 127 0" result="hardAlpha"/>
<feOffset dy="4"/>
<feGaussianBlur stdDeviation="2"/>
<feComposite in2="hardAlpha" operator="out"/>
<feColorMatrix type="matrix" values="0 0 0 0 0 0 0 0 0 0 0 0 0 0 0 0 0 0 0.25 0"/>
<feBlend mode="normal" in2="BackgroundImageFix" result="effect1_dropShadow_82_294"/>
<feBlend mode="normal" in="SourceGraphic" in2="effect1_dropShadow_82_294" result="shape"/>
</filter>
</defs>
</svg>
