<?xml version="1.0" encoding="UTF-8"?>
<svg id="Layer_1" data-name="Layer 1" xmlns="http://www.w3.org/2000/svg" xmlns:xlink="http://www.w3.org/1999/xlink" version="1.1" viewBox="0 0 528.48 1024">
  <defs>
    <style>
      .cls-1 {
        fill: url(#radial-gradient);
      }

      .cls-1, .cls-2, .cls-3, .cls-4, .cls-5, .cls-6, .cls-7, .cls-8, .cls-9, .cls-10, .cls-11, .cls-12, .cls-13, .cls-14, .cls-15, .cls-16, .cls-17, .cls-18 {
        stroke-width: 0px;
      }

      .cls-2 {
        fill: #c5c500;
      }

      .cls-3 {
        fill: #000;
      }

      .cls-4 {
        fill: #bf9768;
      }

      .cls-5 {
        fill: #958863;
      }

      .cls-6 {
        fill: #363636;
      }

      .cls-6, .cls-10 {
        isolation: isolate;
        opacity: .29;
      }

      .cls-7 {
        fill: #3a9243;
      }

      .cls-8 {
        fill: #7e7600;
      }

      .cls-9 {
        fill: #7f7f7f;
      }

      .cls-10 {
        fill: url(#radial-gradient-2);
      }

      .cls-11 {
        fill: #4e4e4e;
      }

      .cls-12 {
        fill: #2a6a38;
      }

      .cls-13 {
        fill: #201a66;
      }

      .cls-14 {
        fill: #323493;
      }

      .cls-15 {
        fill: #e6ded3;
      }

      .cls-16 {
        fill: #524842;
      }

      .cls-17 {
        fill: #d4d400;
      }

      .cls-18 {
        fill: #918271;
      }
    </style>
    <radialGradient id="radial-gradient" cx="299.06" cy="98.99" fx="299.06" fy="98.99" r="21.84" gradientTransform="translate(-19.45 -50.07) scale(.97)" gradientUnits="userSpaceOnUse">
      <stop offset="0" stop-color="#fff"/>
      <stop offset=".02" stop-color="#fef9f4"/>
      <stop offset=".14" stop-color="#fbe0bb"/>
      <stop offset=".25" stop-color="#f9c989"/>
      <stop offset=".37" stop-color="#f7b55f"/>
      <stop offset=".49" stop-color="#f5a53c"/>
      <stop offset=".61" stop-color="#f49922"/>
      <stop offset=".74" stop-color="#f3900f"/>
      <stop offset=".87" stop-color="#f38b03"/>
      <stop offset="1" stop-color="#f38a00"/>
    </radialGradient>
    <radialGradient id="radial-gradient-2" cx="279.33" cy="97.3" fx="279.33" fy="97.3" r="32.1" gradientTransform="translate(0 -54)" gradientUnits="userSpaceOnUse">
      <stop offset="0" stop-color="#fff"/>
      <stop offset=".02" stop-color="#fef9f4"/>
      <stop offset=".14" stop-color="#fbe0bb"/>
      <stop offset=".25" stop-color="#f9c989"/>
      <stop offset=".37" stop-color="#f7b55f"/>
      <stop offset=".49" stop-color="#f5a53c"/>
      <stop offset=".61" stop-color="#f49922"/>
      <stop offset=".74" stop-color="#f3900f"/>
      <stop offset=".87" stop-color="#f38b03"/>
      <stop offset="1" stop-color="#f38a00"/>
    </radialGradient>
  </defs>
  <path class="cls-12" d="M456.04,432.58c-36.23,70.14-105.92,0-197.3,0s-167.56,72.03-207.82,4.11C3.92,357.41,114.71,232.08,248.53,213.64c142.7-19.67,261.33,114.77,207.51,218.94h0Z"/>
  <path class="cls-13" d="M396.96,244.91c-1.21-2.94-14.78-14.07-19.56-12.47-.2.07-9.04,7.31-9.64,8.63-.71,1.58,5.25-5.28-6.32,6.13-7.28,7.18-9.33,13.22-13.96,20.45-3.49,5.46-4.29,5.82-14.26,26.43-10,20.67-6.83,16.28-11.29,28.13-3.19,8.48-7.22,16.62-10.66,25.01-2.61,6.36-3.91,9.71-7.52,11.88-4.51,2.7-8.92,1.32-18.19,0-8.8-1.26-2.79.28-25.71-1.88-21.42-2.01-17.42-2.48-28.22-3.13-10.31-.61-13.47-.16-18.81-2.5-1.9-.84-9.36-4.23-13.8-11.88-3.66-6.31-2.21-10.26-3.14-23.13-.18-2.56-1.79-11.71-5.02-30.01-4.55-25.83-3.05-14.52-5.02-26.26-2.39-14.22-8.3-32.6-10.63-31.18-3.11,1.89-13.4,5.46-17.49,12.38-2.62,4.44,5.85,27.29,8.05,35.06.96,3.4,2.73,13.31,6.27,33.13,3.82,21.39,3.23,28.39-1.03,37.57-5.67,12.23-4.2,7.95-5.67,12.23-6.03,17.53-11.07,18.64-14.5,21.89-5.33,5.05,0,0-17.55,15.11-23.65,20.37-22.27,32.89-25.21,36.98-2.54,3.53-5.74,8.06-8.17,14.84-1.93,5.38-3.7,13.1-1.87,37.05.91,11.95,2.19,20.93,2.51,23.13,3.57,24.77-9.23,36.12-10.4,52.92-1.71,24.57-13.11,28.6-12.44,47.16.54,15.08-4.38,24.63-4.36,28.69.14,24.02-4.96,28.24-2.63,57.88,1.07,13.58,3.09,21.15,6.73,46.19,4.54,31.23,9.43,43.21,11.57,63.95.26,2.55-2.72,41.57.82,69.85,1.37,10.95,2.45,21,5.62,30.06,1.81,5.17,2.87,10.51,3.97,11.8,6.26,7.31,34.29,13.21,53.27,13.36,23.47.18,34.2-.36,36.62,0,11.23,1.65,23.93,1.23,35.06,3.45,4.73.94,7.44-7.85,10.37-9.58,5.6-3.32,4.25-12.02,5.64-29.38,1.22-15.24,2.54-12.15,4.63-32.47,1.93-18.78.08-46.73.21-47.56,5.97-36.72,2.82,28.52,6.4,46.27,2.37,11.77,5.36,20.3,7.49,26.28,3.74,10.51,3.5,17.7,4.55,25.85.68,5.33,4.48,13.16,10.57,17.13,3.33,2.17,17.66-1.38,45.16-1.13,14.37.13,13.33-.74,30.73-.63,2.96.02,12.57.11,24.46,0,17.06-.15,19.73-.54,22.57-2.5,1.45-1,6.46-4.83,9.1-23.74,2.59-18.58,3.6-23.53,5.17-40.28,1.27-13.59.47-11.54,2.66-31,1.32-11.66,7.57-21.56,8.68-41.78.75-13.6,2.16-23.86,2.44-37.29.47-22.05.7-32.67,0-42.73-1.12-15.96-.74-27.7-4.02-39.8-2.83-10.42-2.32-9.74,2.22-20.96,2.44-6.04,4.31-10.43,7.18-19.7,3.33-10.76-1.21-28.59-1.21-28.59,4.54-9.01-4.97-13.28-8.4-41.71-2.66-22.03-3.98-33.05-4.39-46.26-.71-23.06,1.92-25.24-.63-40.01-2.64-15.33-7.87-26.94-11.29-34.38-6.53-14.24-5.01-7.69-17.25-27.29-11.64-18.65-7.98-12.35-16.19-20.23-9.21-8.85-3.33-.46-13.69-11.85-3.96-4.35-6.07-7.85-7.53-10.6-2.16-4.07-5.18-8.21-1.26-19.4,5.02-14.33,1.14-4.15,14.02-32.09,5.06-10.99,3.42-14.83,13.06-30.45,17.49-28.35,23.39-35.44,21.09-41.06l.04.02h0Z"/>
  <g>
    <path class="cls-4" d="M447,621.86c7.65,25.29-.37,35.72-31.18,31.27-30.82-4.45-32.58-21.77-16.82-39.68,18.86-21.43,3.15-26.68,31.09-22.68,35.45,5.08,9.53,6.68,16.91,31.09h0Z"/>
    <path class="cls-4" d="M438.45,668.91c-1.36,5.24-.13,26.59-10.67,26.73-10.54.14-6.59-24.35-5.41-29.2,1.17-4.85,2.98-28.23,12.82-26.6s4.63,23.83,3.27,29.07h-.01Z"/>
    <path class="cls-4" d="M385.63,624.94c14.7-10.73,11.9-11.81,16.15-10.32s-2.61,20.24-10.36,33.87c-7.75,13.64-16.69,12.68-20.94,11.18s1.26-24.61,15.14-34.74h0Z"/>
    <path class="cls-4" d="M453.1,655.08c1.93,15.3.93,27.7-2.22,27.68-3.16-.01-7.28-12.43-9.21-27.73s-.93-27.7,2.22-27.68,7.28,12.43,9.21,27.73Z"/>
    <path class="cls-4" d="M407.7,664.31c-1.67,4.2-8.6,25.68-17.82,22.68-9.23-3,.18-22.35,1.98-26.87s8.48-25.35,17.97-22.87-.46,22.86-2.12,27.06h0Z"/>
    <path class="cls-4" d="M421.23,669.5c-1.46,5.24-3.21,25.75-13.69,25.68s-3.49-24.86-2.31-29.07c1.18-4.22,5.15-27.77,14.99-25.54,9.84,2.23,2.47,23.69,1.01,28.93Z"/>
  </g>
  <path class="cls-12" d="M512.21,455.36c-18.03,89.45-9.73,143.99-100.41,108.78-47.63-18.49-5.97-70.72-11.74-146.77-5.25-69.16,21.33-83.04,6.01-129.52-21-63.68,127.03,63.86,106.14,167.51h0Z"/>
  <path class="cls-14" d="M62.69,976.85"/>
  <path class="cls-16" d="M231.31,974.29c5.08,9.26-19.55,24.6-22.57,26.48-43.32,26.98-129.53,33.19-142.05,3.96-4-9.34-4-18.35-.66-29.2,3.73-12.14,26.33-6.72,67.04-5.94,69.6,1.33,93.67-3.64,98.24,4.7Z"/>
  <rect class="cls-16" x="176.89" y="970.42" width="55.11" height="49.95" rx="4.93" ry="4.93"/>
  <rect class="cls-16" x="256.82" y="970.42" width="55.11" height="49.95" rx="6.04" ry="6.04"/>
  <path class="cls-14" d="M249.74,940.12c-8.54,42.2-31.78,40.57-86.02,45.76-56.02,5.36-89.3-9.63-86.02-45.76,3.32-36.67,27.05-20.97,86.32-21.76,52.84-.7,92.83-13.31,85.73,21.76h-.01Z"/>
  <path class="cls-16" d="M431.84,978.83c0,19.82-1.01,42.13-47.76,42.13s-124.75-19.65-124.75-39.47,30.7-8.41,77.45-8.41,95.05-14.07,95.05,5.75h.01Z"/>
  <path class="cls-12" d="M130.88,446.45c-14.41,71.32,62.6,10.14,83.07,69.24,34.93,100.87-146.49,99.43-187.36-7.34-40.5-105.8,78.56-256.42,82.8-197.41,7.62,105.93,49.16-1.42,21.49,135.5h0Z"/>
  <path class="cls-14" d="M415.68,946.2c.15,34.83-33.11,45.11-83.48,38.1-50.38-7.01-87.55,17.33-78.52-31.43,8.53-46.12,20.98-38.18,78.51-31.85,54.64,6.01,83.33-12.36,83.48,25.18h.01Z"/>
  <path class="cls-7" d="M426.75,593.73c-30.83-6.98-35.89,11.05-41.03-3.29-25.19-70.31-1.18-48.31,55.9-32.67,43.5,11.92,75.14,2.07,32.88,49.58-10.08,11.33-16.92-6.64-47.75-13.62h0Z"/>
  <path class="cls-5" d="M217.48,373.93l8.77-2.05c3.35-.78,6.72,1.32,7.57,4.73l78.85,316.25c.87,3.47-1.22,6.96-4.63,7.76l-6.68,1.56c-3.33.78-6.69-1.3-7.55-4.69l-80.94-315.76c-.89-3.48,1.19-7,4.62-7.8h-.01Z"/>
  <path class="cls-4" d="M199.94,504.73c-6.29,12.79,1.8,34.03,11.14,42.15,1.91,1.66,3.74,2.66,3.97,2.78,8.33,4.48,16.75,1.28,20.8-.06,16.66-5.5,25.48-6.54,34.38-4.44,5.93,1.4,11.23,4.17,14.94.95,2.05-1.77,3.37-5.14,3.17-8.38-.31-5.11-4.16-6.07-5.09-11.97-.69-4.44,1.32-5.05.42-9.57-.84-4.27-2.75-4.32-4.41-9.3-1.88-5.62.14-6.8-1.68-11.41-2.11-5.35-5.2-4.73-6.94-9.61-1.98-5.57,1.23-8.68-.76-12.59-2.01-3.96-7.62-5.35-11.51-5.13-8.02.44-9.77,7.76-22.66,15.2-2.79,1.61-2.28,1.02-8.37,4.01-16.6,8.15-24.9,12.23-27.42,17.35l.02.02h0Z"/>
  <path class="cls-9" d="M162.16,670.43c11.9,11.95,38.93,28.28,50.35,37.22,11.89,9.31,24.6,8.99,32.22,11.89,8.94,3.41,9.88,3.45,15.1,4.48,7.93,1.57,14.81.43,20.67-.45,10.34-1.54,13.87-4.19,24.58-6.48,1.41-.3,13.06-2.67,16.26-3.29,4.9-.94,13.56-2.4,17.23-3.46,9.85-2.85,14.86-4.43,23.46-9.6,6.22-3.74,12.44-10.88,17.93-16.57,5.27-5.46,11.8-13.72,15.42-19.71,3.11-5.15,6.48-16.58,7.68-19.16,2.1-4.51,2.35-19.48,6.66-18.16,7.28,2.22,7.92,16.51,8.54,27.27.15,2.6-.82,21.66-5.26,30.39-5.46,10.72-13.81,26.16-25.49,35.46-9.61,7.66-19.97,15.52-33.14,19.59-9.56,2.96-21.85,3.36-32.52,5.72-10.27,2.27-20.64,7.69-31.51,9.06-11.5,1.44-22.32,1.82-34.22-.63-18.63-3.83-40.79-12.64-56.39-22.97-14.57-9.65-23.55-22.71-30.84-37.52"/>
  <path class="cls-11" d="M287.46,701.06c1.66-2.18,4.79-2.12,13.79-4.01,12.05-2.53,14.4-4.3,17.89-3,3.67,1.37,4.94,4.77,5.52,6.33.72,1.93.62,3.88.43,7.79-.16,3.17-.24,4.75-.96,5.61-1.91,2.27-5.19,1.86-13.52,3.69-9.7,2.12-11.68,4.08-15.41,3.08-3.52-.94-5.2-3.6-6.09-5.02-1.15-1.83-1.37-3.79-1.82-7.72-.43-3.79-.63-5.7.17-6.74h0Z"/>
  <path class="cls-11" d="M291.18,719.84c1.46-2.78,6.26-.17,15.06-1.94,11.76-2.36,15.33-6.96,18.91-4.91,3.77,2.16,3.95,9.27,4.66,11.41.88,2.66.96,5.27,1.1,10.5.12,4.25.18,6.37-.47,7.46-1.7,2.88-5.51,4.72-13.64,6.45-9.46,2.02-10.46,4.33-14.26,2.67-3.59-1.57-5.77-7.81-6.78-9.79-1.3-2.55-1.7-5.22-2.48-10.54-.75-5.13-2.81-9.98-2.11-11.31h.01Z"/>
  <path class="cls-6" d="M291.12,719.82c1.46-2.78,6.26-.17,15.06-1.94,11.76-2.36,15.33-6.96,18.91-4.91,3.77,2.16,3.95,9.27,4.66,11.41.88,2.66.96,5.27,1.1,10.5.12,4.25.18,6.37-.47,7.46-1.7,2.88-5.51,4.72-13.64,6.45-9.46,2.02-10.46,4.33-14.26,2.67-3.59-1.57-5.77-7.81-6.78-9.79-1.3-2.55-1.7-5.22-2.48-10.54-.75-5.13-2.81-9.98-2.11-11.31h.01Z"/>
  <path class="cls-7" d="M206,529.97c6.35,29.46,25.15,23.19,19.94,37.22-16.14,43.46-46.32,22.45-56.31-34.84-8.84-50.75-6.88-79.2,34.75-49.13,8.7,6.28-5.51,13.66,1.62,46.75h0Z"/>
  <path class="cls-4" d="M398.71,137.75c-21.76,64.56-58.17,122.68-129.93,122.68s-109.7-57.67-129.93-122.68c-15.7-50.46,45.12-40.22,129.93-40.78,82.28-.54,145.7-6.04,129.93,40.78Z"/>
  <path class="cls-3" d="M225.46,134.92c0,5.97-2.07,10.8-7.64,10.8s-7.71-4.84-7.71-10.8,2.14-10.8,7.71-10.8,7.64,4.84,7.64,10.8Z"/>
  <path class="cls-3" d="M331.72,136.26c0,5.97-1.99,10.8-7.35,10.8s-7.42-4.84-7.42-10.8,2.06-10.8,7.42-10.8,7.35,4.84,7.35,10.8Z"/>
  <path class="cls-15" d="M158.91,103.37c2.65,3.21-9.73,36.46,1.1,42.09,1.05.54,1.11,0,4.63.48,8.55,1.22,14.5,5.57,16.46,7.03,4.9,3.67,7.4,7.5,11.06,13.09,2.6,3.97,3.9,5.96,4.89,8.73,3.93,10.99-1.15,19.95,2.57,21.82,1.52.77,3.59-.12,3.86-.24,2.37-1.06,3.81-7.57,5.22-9.77,1.69-2.63,4.85-2.44,13.65-5.18,4.05-1.26,6.04-2.2,9.33-2.93,6.92-1.53,23.97-10.16,24.26-3.8,1.11,24.58,20.82,26.54,21.22,1.49.15-9.59,17.54,2.59,26.37,2.72,5.88.09,11.28,3.45,15.79,6.71,2.97,2.14,2.56,3.25,6.28,6.09,1.59,1.21,2.47,5.9,4.93,5.15,1.79-.54,2.67-2.28,3.34-3.64,1.81-3.67,1.59-7.09,1.54-8.73,0,0-.19-6.9,2.83-14.55,2.7-6.84,7.67-11.12,10.8-13.82,1.09-.94,5.09-4.29,10.8-7.03,4.41-2.11,6.61-3.17,9.26-3.64,1.33-.23,2.24-.28,3.09-.97,2.47-2.02,4.07-7.19,4.61-8.7,3.03-8.52-6.52-31.8-3.31-35.12,3.33-3.45,13.41,2,18.56,7.46,8.57,9.08,7.09,22.01,6.12,30.55-.51,4.42-1.54,9.38-4.63,17.7-4.76,12.85-10.89,24.23-19.32,37.06-11.86,18.05-17.79,27.07-28.61,36.81-6.68,6.02-18.23,16.23-36.85,23.21-5.73,2.15-24.55,8.65-49.47,6.57-6.79-.57-30.85-3.18-54.96-19.26-16.3-10.87-25.13-22.9-32.8-33.34-16-21.79-14.87-18.38-26.04-44.47,0,0-7.51-20.82-8.29-32.14-.04-.55.38-2.07.59-5.5.27-4.53,1.3-8.02,1.77-10.92.11-.69,1.15-6.15,7.86-9.75.37-.2,8.5-4.93,11.51-1.27h-.02,0Z"/>
  <path class="cls-16" d="M240.78,212.14c-1.15-.23-3.69-1.13-3.98-1.69-.4-.77.06-2.19.75-2.43,5.24-1.79,9.84-1.12,16.67-1.22,3.64-.05,10.42-.08,15.56-.13,4.47-.05,10.4.04,15.75.24,2.06.08,5.34.16,7.93,1.06.63.22,3.19,1.64,2.96,2.45-.17.61-2.08,1.62-2.44,1.81-1.75.91-7.2.86-8.08.87-4.05.03-10.89.09-13.04.08-7.35-.04-10.85-.14-17.49-.05-3.44.04-7.13-.03-11.13-.37-.32-.03-2.31-.37-3.47-.6v-.02h0Z"/>
  <path class="cls-18" d="M279.72,165.37c1.83,10.66-3.68,30.44-13,30.44s-15.03-19.57-13.41-30.25c1.27-8.4,4.29,25.26,13.41,25.47,9.16.21,11.8-32.63,13-25.66Z"/>
  <path class="cls-15" d="M186.56,128.16c-1.41-.6-4.51-2.97-4.87-4.45-.49-2.02.07-5.77.91-6.38,6.41-4.71,12.04-2.95,20.4-3.21,4.46-.14,12.75-.2,19.04-.35,5.47-.13,12.72.1,19.27.62,2.52.2,6.53.41,9.71,2.77.77.57,3.91,4.32,3.63,6.45-.21,1.61-2.54,4.27-2.99,4.76-2.14,2.38-8.81,2.26-9.89,2.28-4.96.09-13.33.24-15.95.21-9-.1-13.27-.36-21.4-.13-4.2.12-8.73-.07-13.62-.99-.39-.07-2.83-.99-4.24-1.59h0Z"/>
  <path class="cls-15" d="M291.52,131.38c-1.41-.6-4.51-2.98-4.87-4.46-.49-2.02.07-5.77.91-6.39,6.42-4.72,12.05-2.95,20.41-3.21,4.46-.14,12.76-.2,19.05-.35,5.48-.13,12.73.1,19.28.62,2.52.2,6.54.41,9.71,2.78.77.57,3.91,4.32,3.63,6.46-.21,1.61-2.55,4.27-2.99,4.77-2.14,2.38-8.82,2.27-9.89,2.29-4.96.09-13.34.24-15.96.21-9-.1-13.28-.36-21.42-.13-4.21.12-8.73-.07-13.63-.99-.39-.07-2.83-.99-4.25-1.59h.02Z"/>
  <path class="cls-8" d="M414.61,117.45c2.39,7.63-7.23,19.97-12.43,21.59s-3.48-8.28-4.67-16.18c-1.24-8.25-11.38-22.1-6.18-23.72s20.89,10.69,23.28,18.32h0Z"/>
  <path class="cls-8" d="M113.36,115.35c0-10.04,27.94-14.07,35.89-14.07s-7.93,4.04-9.71,13.97c-1.86,10.36.86,21.02-7.08,21.02s-19.09-10.87-19.09-20.91h-.01Z"/>
  <path class="cls-17" d="M125.07,94.49c2.78-7.35,7.64-20.44,16.2-31.36,10.05-12.83,19.07-21.88,38.49-35.04,17.18-11.64,27.29-14.08,37.21-18.45,11.42-5.03,29.43-7.23,37.02-8.49,3.54-.59,5.74-.7,8.35-.92,14.18-1.24,25.04,1.79,32.72,3.33,13.71,2.74,24.5,6.98,31.34,10.06,9.93,4.48,26.65,12.01,41.7,28.33,7.39,8.01,14.56,18.61,21.51,31.78,1.57,2.98,5.31,12.18,10.09,19.59.82,1.27,1.36,5.05,1.51,5.82"/>
  <path class="cls-2" d="M136.81,133.75c.03-.85-2.9,2.05-8.25.55-3.44-.97-5.51-3.4-6.32-4.33-3.54-4.04-5.54-10.81-3.19-15.58.85-1.73,3.1-4.86,21.36-8.26,12.39-2.31,18.49-2.54,18.49-2.54,22.8-.86-12.16-1.93,78.43-5.72,0,0,82.49-3.45,130.41,1.91,2.86.32,5.2.83,5.74.95,3.48.78,8.53,2.28,17.54,7.31,10.36,5.79,15.58,8.8,17.54,14.3.63,1.78,1.41,3.96.64,6.36-1.85,5.74-10.57,6.43-10.51,10.18.02,1.33.04.74,1.12.98.68.16,1.05.87,7.16-2.9,2.99-1.85,3.56-4.12,5.1-6.68,2.12-3.52,3.88-6.43,4.46-10.49.16-1.11,1.1-7.61-2.55-13.03-2.48-3.68-5.92-5.14-12.75-7.63-17.5-6.36-26.46-8.58-26.46-8.58-3.33-.82-14.88-3.65-22.96-5.09-32.29-5.76-88.38-3.58-144.43-2.86-24.57.32-48.62,7.18-73.01,10.17-5.16.63-18.07,2.18-22.64,10.81-1.41,2.66-2.82,7.49-1.91,12.71.59,3.43,1.99,5.9,3.51,8.58,2.15,3.79,4.34,6.12,6.38,8.26,3.12,3.3,4.65,4.05,5.74,4.45,2.02.73,3.81.72,4.78.64,4.97-.41,6.37,1.01,6.6-4.48h-.02,0Z"/>
  <ellipse class="cls-9" cx="272.65" cy="45.95" rx="27.77" ry="27.68"/>
  <ellipse class="cls-1" cx="272.65" cy="45.95" rx="21.24" ry="21.18"/>
  <ellipse class="cls-10" cx="272.65" cy="45.95" rx="31.24" ry="31.15"/>
</svg>