<svg width="345" height="440" viewBox="0 0 345 440" fill="none" xmlns="http://www.w3.org/2000/svg">
<g clip-path="url(#clip0_1_2)">
<path d="M150.457 287.203C154.077 284.134 156.346 281 157.725 278.732C159.889 275.174 161.799 272.022 161.356 268.24C161.062 265.731 160.012 265.324 156.11 259.363C151.831 252.836 152.591 252.553 148.842 247.263C145.807 242.974 144.292 240.83 142.382 238.792C139.588 235.811 137.56 234.356 137.943 232.742C138.315 231.169 140.696 230.615 142.789 229.92C144.262 229.431 148.076 227.04 155.704 222.256C161.763 218.457 165.53 214.345 173.063 206.121C176.989 201.838 181.133 197.267 185.577 190.387C188.241 186.263 190.587 182.581 192.438 177.073C193.576 173.686 195.138 169.056 194.861 162.953C194.572 156.52 192.379 151.554 190.823 148.025C188.648 143.089 185.978 138.341 185.978 138.341C183.538 133.993 181.545 131.125 182.347 130.27C183.019 129.558 184.693 131.248 187.64 130.995C190.434 130.753 192.403 128.927 194.059 127.39C197.166 124.509 198.427 121.299 198.681 120.633C200.508 115.803 199.671 111.249 198.793 106.448C198.303 103.762 197.967 103.414 197.331 99.691C196.617 95.5379 196.83 94.8193 196.093 92.7103C195.881 92.1095 194.82 89.1935 192.149 86.2952C190.906 84.9403 188.601 82.8196 185.164 81.4529C183.184 80.6635 181.398 79.9507 179.417 80.5516C178.91 80.7048 178.374 80.9463 175.586 83.5913C173.069 85.9771 172.326 86.8961 170.181 88.8813C168.913 90.0536 167.929 90.8842 167.363 91.3554C163.561 94.5542 161.663 96.1506 160.39 96.2802C158.056 96.5217 157.389 94.454 151.577 90.1419C147.581 87.1729 145.565 85.6767 142.5 85.0699C138.45 84.2687 137.56 86.0007 134.489 85.0699C130.475 83.8505 130.133 80.3278 126.213 76.2631C124.38 74.3603 122.907 73.5297 112.061 68.7934C101.94 64.3753 96.8822 62.1662 95.7741 61.854C89.1781 60.022 78.8804 57.1649 71.2057 62.3901C68.8126 64.0219 67.5629 65.8775 65.0637 69.5946C59.175 78.3543 61.02 82.4013 55.7208 88.0094C51.636 92.3274 49.231 91.3024 47.7102 94.9489C45.5351 100.162 49.5198 104.451 46.6433 108.027C45.4408 109.523 43.5605 110.236 40.236 111.496C36.4163 112.945 35.3435 112.451 34.3591 113.629C32.8619 115.431 33.8758 118.501 35.9624 124.568C36.9527 127.443 38.2908 130.83 40.7665 137.11C41.1378 138.058 41.8687 139.89 42.3698 142.447C42.8472 144.88 42.6822 145.722 42.9062 147.248C43.4485 150.953 45.6294 153.528 46.714 154.983C47.2151 155.648 47.7338 156.231 48.7771 157.392C52.078 161.062 53.3218 161.557 54.6539 163.53C55.8977 165.374 56.4989 166.876 57.5894 169.669C61.3619 179.33 61.0554 179.165 61.8629 180.879C63.3307 184.007 63.7256 183.259 74.4124 195.288C77.6425 198.928 80.4542 202.198 81.6213 203.559C85.7062 208.324 85.8831 208.666 87.4982 210.498C91.3473 214.875 94.9194 218.015 101.916 224.106C109.774 230.951 111.76 232.094 113.399 232.913C115.821 234.12 119.499 235.905 124.616 236.117C126.838 236.206 131.141 236.4 135.032 234.25C142.211 230.28 147.463 218.616 142.435 211.729C139.063 207.111 131.524 205.285 126.596 207.376C123.608 208.642 122.836 210.81 120.655 210.539C117.507 210.15 114.53 206.934 115.079 202.516C115.591 198.339 119.553 195.306 121.846 193.521C125.889 190.375 127.752 189.256 130.552 186.004C132.674 183.541 131.56 181.438 130.723 180.679C129.585 179.648 128.512 184.231 118.704 188.725C114.177 190.799 111.229 191.135 109.019 193.409C106.708 195.783 106.649 196.13 103.508 197.821C102.447 198.392 98.2675 202.728 96.5934 201.868C94.9901 201.043 97.0473 196.372 97.289 194.716C97.6426 192.254 100.059 189.968 100.059 189.968C100.49 189.986 103.979 190.086 105.205 187.989C106.26 186.181 105.005 183.836 103.62 181.262C102.523 179.212 101.58 177.462 99.6586 176.514C97.6544 175.524 96.3871 176.296 92.5321 176.514C88.3647 176.749 84.5332 176.967 82.2344 174.929C81.7333 174.481 80.9258 173.598 79.8589 165.828C79.1633 160.762 78.8156 158.228 78.6682 154.747C78.4383 149.162 78.9158 147.519 77.4775 146.04C75.9272 144.438 73.5164 144.45 70.746 144.456C68.6357 144.462 65.1285 144.479 62.0339 146.83C59.3283 148.891 58.0433 151.902 57.6778 152.768C56.6875 155.095 57.0176 155.896 56.0922 156.726C53.87 158.723 47.9165 157.757 46.7081 154.994C44.5802 150.14 52.9858 143.124 52.9858 143.124L57.3242 139.914C58.397 139.225 60.2832 138.759 62.8237 138.123C74.0941 135.313 76.8291 131.354 83.4133 130.606C90.9111 129.752 91.8365 134.359 99.2518 134.565C113.988 134.971 125.547 117.476 124.993 115.967C123.237 111.178 112.656 115.897 99.2518 126.259C98.0258 127.207 86.8085 127.048 85.3938 123.095C83.9615 119.101 93.0037 112.586 94.8958 111.225C99.9651 107.573 104.999 105.988 107.964 105.287C110.198 104.757 112.786 104.533 117.861 104.097C122.836 103.673 126.938 103.438 129.738 103.308" stroke="#93B5C6" stroke-width="6" stroke-miterlimit="10"/>
<path d="M105.583 186.251C107.327 184.284 108.801 182.829 110.009 182.416C110.369 182.293 111.206 181.757 114.866 181.114C118.374 180.496 118.173 180.649 118.804 180.519C122.264 179.801 122.435 180.207 124.292 179.925C125.754 179.701 127.905 179.671 130.711 180.69" stroke="#93B5C6" stroke-width="6" stroke-miterlimit="10"/>
<path d="M102.128 172.178C100.549 172.643 99.0337 172.154 98.515 171.194C97.8018 169.869 99.2459 168.149 100.048 167.471C100.761 166.87 101.616 166.67 103.331 166.269C104.457 166.004 104.975 166.016 105.412 166.269C105.901 166.558 106.054 167.012 106.29 167.471C106.803 168.467 107.481 169.009 108.701 169.987C110.133 171.135 111.731 171.312 114.613 171.63C116.582 171.848 118.262 172.031 120.419 171.63C123.142 171.124 123.16 170.322 126.113 169.551C129.561 168.649 132.391 168.991 133.234 169.115C134.914 169.356 137.112 169.674 139.258 171.194C140.696 172.219 140.914 172.938 143.75 175.789C144.864 176.914 145.818 177.798 146.449 178.369" stroke="#93B5C6" stroke-width="6" stroke-miterlimit="10"/>
<path d="M40.3833 136.155C39.0335 143.26 37.1826 144.915 35.7856 145.174C33.3453 145.628 32.0072 141.858 26.7493 141.004C25.6647 140.827 23.2715 140.438 20.7251 141.469C18.1728 142.5 17.5539 144.102 16.5518 143.784C14.9721 143.283 14.4357 138.647 15.6264 134.753C16.1451 133.057 16.5105 133.069 19.1041 128.268C20.0178 126.577 21.0493 124.656 22.1162 122.247C23.9671 118.07 24.8807 115.938 24.4328 113.912C24.026 112.079 22.6467 109.623 20.2594 109.046C17.1412 108.292 14.4887 111.272 14.0054 111.826C13.4336 112.468 12.2547 113.994 11.9187 116.227C11.2232 120.816 14.7127 124.215 14.0054 124.798C13.4218 125.281 10.2859 123.59 8.90661 120.627C7.10878 116.751 9.12471 112.445 10.0678 110.436C10.9049 108.651 11.565 107.243 13.0799 106.035C16.4103 103.385 19.6346 105.058 21.4207 102.795C22.965 100.84 22.5996 97.0165 20.955 96.0799C18.5618 94.7191 15.3022 100.522 9.83205 100.015C6.84942 99.7381 3.58386 97.6174 2.64664 94.454C1.52078 90.6426 4.09669 86.413 7.04984 84.958C9.40175 83.8033 10.8459 84.9697 13.074 83.5677C15.2963 82.1657 16.039 79.6326 16.5518 77.777C18.3909 71.1321 14.8719 68.5696 17.0175 65.041C17.6659 63.9747 17.9075 64.34 24.8984 59.7156C27.7396 57.8364 29.1602 56.8998 29.5315 56.4757C32.8148 52.7644 30.6515 49.4655 33.7048 44.4347C34.7953 42.638 36.4635 39.887 39.2693 39.3392C42.6291 38.6794 44.2265 41.8369 50.3922 42.8148C52.0191 43.074 53.8228 43.3567 56.0274 42.8913C62.7176 41.4834 66.272 34.6559 66.5314 34.1434C68.6475 29.9373 67.6042 27.5869 70.0327 25.8314C72.3728 24.1466 74.1176 25.7607 76.5992 24.5177C80.967 22.3264 78.5326 15.7993 82.7236 9.64922C85.889 5.00133 92.1077 1.64355 98.0435 2.21496C102.623 2.65677 107.198 5.44904 109.862 8.77738C111.117 10.3443 111.306 11.2221 112.927 12.7125C115.556 15.1277 118.362 15.8464 121.244 16.6476C130.021 19.0982 127.286 18.9214 133.935 20.5827C142.223 22.6562 144.427 22.4206 147.062 24.9537C147.652 25.5192 149.668 27.5103 150.564 30.6384C151.206 32.8828 150.617 33.4306 151 35.4512C151.666 38.9621 154.189 41.2596 158.002 44.635C162.264 48.4052 162.718 47.4744 164.569 49.8838C166.95 52.9883 166.361 54.7437 168.943 58.6317C170.676 61.2414 172.014 62.0484 173.758 63.8805C176.169 66.4076 179.034 70.5313 180.761 77.4412" stroke="#93B5C6" stroke-width="6" stroke-miterlimit="10"/>
<path d="M195.203 126.229C196.723 129.717 199.47 136.014 202.96 144.055C207.611 154.765 208.059 155.837 209.408 158.093C212.928 163.984 213.818 163.289 223.915 175.577C229.574 182.463 230.823 184.537 233.352 184.549C238.115 184.572 238.645 177.262 244.776 175.306C250.464 173.492 253.158 178.776 265.99 182.917C274.319 185.603 274.655 183.848 286.656 187.265C291.767 188.72 291.613 189.008 301.339 192.154C307.128 194.027 311.26 195.241 319.288 197.591C322.106 198.416 324.387 199.076 326.397 199.647C329.769 200.613 332.439 201.367 334.561 201.968C340.797 203.724 341.617 203.252 342.135 204.112C343.833 206.946 337.025 213.043 331.407 220.624C326.668 227.016 324.322 232.73 319.636 244.158C311.613 263.71 309.456 280.599 308.395 289.347C306.821 302.36 304.988 317.506 308.66 336.409C310.252 344.609 311.572 346.76 313.895 353.669C316.129 360.303 317.543 365.734 317.803 367.006C320.025 377.904 313.877 388.484 311.431 392.691C302.306 408.396 286.544 414.864 268.077 422.157C259.465 425.556 247.581 429.497 230.788 432.554C205.329 437.19 185.665 436.689 159.682 436.018C140.808 435.535 128.83 434.292 99.8531 434.286C93.6343 434.286 88.5002 434.339 85.0578 434.392" stroke="#93B5C6" stroke-width="6" stroke-miterlimit="10"/>
<path d="M150.287 249.389C148.512 252.04 145.742 255.858 141.875 260.028C136.334 265.996 132.279 268.641 128.023 272.317C123.52 276.205 119.57 281.442 111.677 291.916C99.4935 308.086 93.3927 316.316 92.9978 323.497C92.8209 326.672 93.2866 330.754 91.754 337.028C90.8286 340.816 89.9031 342.406 90.0446 345.581C90.2804 351.154 93.3514 351.731 93.3161 355.384C93.2394 363.13 79.3932 365.758 79.4639 373.893C79.4875 376.72 81.1734 377.887 80.3953 381.203C79.9119 383.271 79.0277 383.825 77.1238 388.361C75.9272 391.218 76.2043 391.171 75.5677 392.249C73.428 395.86 70.7224 395.648 69.1839 397.851C66.9676 401.026 69.3195 406.163 72.921 414.027C75.049 418.681 77.2535 422.245 79.7705 426.316C83.1657 431.812 83.148 433.797 85.0637 434.404C89.0366 435.658 94.0588 430.404 96.558 427.782C100.696 423.447 102.777 419.247 103.897 416.996C111.318 402.116 115.031 394.676 117.283 392.402C125.683 383.901 132.096 388.367 137.578 380.32C141.162 375.059 141.268 368.974 141.462 357.881C141.604 349.994 140.643 350.07 140.596 341.487C140.566 335.42 140.525 326.731 143.19 316.463C145.082 309.17 146.826 306.896 148.801 297.477C149.691 293.217 150.18 289.642 150.457 287.209" stroke="#93B5C6" stroke-width="6" stroke-miterlimit="10"/>
<path d="M233.352 184.555C229.992 188.301 224.345 194.758 217.732 203.134C204.168 220.306 203.726 223.788 188.884 243.204C186.538 246.273 180.125 254.591 172.261 266.173C165.477 276.163 162.677 281.124 162.482 287.674C162.264 294.873 165.4 297.1 166.885 304.286C168.577 312.492 166.532 319.473 159.063 336.539C154.065 347.967 147.498 361.934 139.069 377.669" stroke="#93B5C6" stroke-width="6" stroke-miterlimit="10"/>
<path d="M160.39 96.292C160.431 98.3597 166.043 113.735 164.858 117.417C162.677 124.209 159.588 124.374 158.103 130.276C157.737 131.737 157.749 135.861 157.778 144.102C157.796 148.921 157.885 148.809 157.778 150.211C157.69 151.354 157.26 156.379 154.56 163.071C153.257 166.293 151.76 168.973 148.766 174.328C145.412 180.331 145.046 180.319 144.905 181.727C144.327 187.382 150.045 188.938 150.051 195.235C150.051 199.906 146.921 203.635 145.866 204.884C143.814 207.317 141.557 208.701 140.124 209.438" stroke="#93B5C6" stroke-width="6" stroke-miterlimit="10"/>
</g>
<defs>
<clipPath id="clip0_1_2">
<rect width="345" height="440" fill="white"/>
</clipPath>
</defs>
</svg>
