<svg width="1920" height="1080" viewBox="0 0 1920 1080" fill="none" xmlns="http://www.w3.org/2000/svg">
<path d="M1616.1 613.07L1650.09 567.62L1644.25 562L1646.05 556.27L1654.59 559.08L1671.8 533.05H1666.75L1668.59 524.33L1678.68 522.49L1689.24 503.67L1691.53 499.78L1683.75 496.17L1686.39 485.9L1695.41 487.56L1704.47 462.9L1659.16 452.49L1605.61 427.56L1600.19 426.05L1554.24 465.72L1538.84 467.02L1537.33 456.18L1568.33 410.44L1545.93 399.38V393.75H1572.02V331.67L1576.43 328.36H1584.88L1590.02 335.71L1606.92 393.75V397.43H1635.57L1669.74 404.77L1714.56 415.79L1725.58 388.98H1718.6L1718.23 382.36L1725.58 380.53V351.87L1720.43 351.14L1718.6 340.48H1725.58V309.99H1719.7L1718.6 299.34H1723.74L1720.07 242.4H1729.25L1743.21 251.21L1766.72 374.28L1804.2 382.36L1806.77 393.75L1804.56 408.81L1776.28 404.77L1778.11 434.16L1843.5 456.94L1879.14 473.47L1890.53 484.49V498.09L1869.95 504.7L1834.69 502.49L1770.03 480.45L1744.31 500.29L1743.58 508.74L1764.89 512.78L1768.93 522.7L1764.15 535.56L1751.66 537.39L1731.09 524.54L1724.48 523.43L1637.78 619.68H1621.24L1616.1 613.07ZM1616.1 613.07L1621.24 619.68" stroke="#BB3E03" stroke-width="8" stroke-miterlimit="10"/>
<path d="M1509.01 404.22L1474.76 406.25" stroke="#BB3E03" stroke-width="10" stroke-miterlimit="10"/>
<path d="M1460.68 414.48L1428.98 422.53" stroke="#BB3E03" stroke-width="10" stroke-miterlimit="10"/>
<path d="M1412.89 431.04L1387.73 445.67" stroke="#BB3E03" stroke-width="10" stroke-miterlimit="10"/>
<path d="M1363.08 463.28L1341.45 483.4" stroke="#BB3E03" stroke-width="10" stroke-miterlimit="10"/>
<path d="M1324.35 498.49L1303.22 517.61" stroke="#BB3E03" stroke-width="10" stroke-miterlimit="10"/>
<path d="M1285.61 535.72L1261.97 551.81" stroke="#BB3E03" stroke-width="10" stroke-miterlimit="10"/>
<path d="M1240.84 566.4L1211.16 574.45" stroke="#BB3E03" stroke-width="10" stroke-miterlimit="10"/>
<path d="M1186.01 584.01H1147.28" stroke="#BB3E03" stroke-width="10" stroke-miterlimit="10"/>
<path d="M1115.58 579.48L1087.92 570.43" stroke="#BB3E03" stroke-width="10" stroke-miterlimit="10"/>
<path d="M1057.73 556.27L1028.05 543.76" stroke="#BB3E03" stroke-width="10" stroke-miterlimit="10"/>
<path d="M1010.95 536.22L981.77 520.12" stroke="#BB3E03" stroke-width="10" stroke-miterlimit="10"/>
<path d="M960 511.07L930.96 496.48" stroke="#BB3E03" stroke-width="10" stroke-miterlimit="10"/>
<path d="M912.85 487.93L881.16 477.87" stroke="#BB3E03" stroke-width="10" stroke-miterlimit="10"/>
<path d="M857.02 469.82L824.32 464.28" stroke="#BB3E03" stroke-width="10" stroke-miterlimit="10"/>
<path d="M801.68 461.77L770.99 460.26" stroke="#BB3E03" stroke-width="10" stroke-miterlimit="10"/>
<path d="M743.33 461.01L709.12 469.31" stroke="#BB3E03" stroke-width="10" stroke-miterlimit="10"/>
<path d="M687.99 477.36L656.8 485.91" stroke="#BB3E03" stroke-width="10" stroke-miterlimit="10"/>
<path d="M639.2 495.47L608.01 508.55" stroke="#BB3E03" stroke-width="10" stroke-miterlimit="10"/>
<path d="M586.88 521.13L559.21 533.7" stroke="#BB3E03" stroke-width="10" stroke-miterlimit="10"/>
<path d="M541.6 544.27L518.97 556.27" stroke="#BB3E03" stroke-width="10" stroke-miterlimit="10"/>
<path d="M494.32 566.4L463.63 574.95" stroke="#BB3E03" stroke-width="10" stroke-miterlimit="10"/>
<path d="M435.96 584.01L403.77 590.05" stroke="#BB3E03" stroke-width="10" stroke-miterlimit="10"/>
<path d="M373.58 595.08L338.87 596.58" stroke="#BB3E03" stroke-width="10" stroke-miterlimit="10"/>
<path d="M305.17 595.83H271.97" stroke="#BB3E03" stroke-width="10" stroke-miterlimit="10"/>
<path d="M243.29 595.83L206.07 590.05" stroke="#BB3E03" stroke-width="10" stroke-miterlimit="10"/>
<path d="M181.92 587.03L148.22 579.98" stroke="#BB3E03" stroke-width="10" stroke-miterlimit="10"/>
<path d="M126.08 573.95L100.93 561.87" stroke="#BB3E03" stroke-width="10" stroke-miterlimit="10"/>
<path d="M68.42 564.52C75.191 564.52 80.68 559.031 80.68 552.26C80.68 545.489 75.191 540 68.42 540C61.649 540 56.16 545.489 56.16 552.26C56.16 559.031 61.649 564.52 68.42 564.52Z" stroke="#BB3E03" stroke-width="8" stroke-miterlimit="10"/>
<path d="M65.72 530.18C53.79 529.69 45.83 516.69 36.54 501.51C25.44 483.37 17.51 470.41 19.44 452.71C21.32 435.47 32.66 412.88 53.14 407.44C80.16 400.26 109.94 426.42 115.02 453.22C119.37 476.17 104.75 495.04 93.89 509.06C85.92 519.35 77.16 530.66 65.72 530.19V530.18Z" stroke="#BB3E03" stroke-width="8" stroke-miterlimit="10"/>
<path d="M44.21 478.31C41.03 474.33 36.09 468.16 36.16 459.7C36.26 447.86 46.14 436.48 58.29 433.54C73.29 429.91 90.11 439.52 93.5 453.16C96.74 466.18 86.41 477.56 83.44 480.83C79.96 484.66 74.03 491.19 65.33 491.39C54.86 491.63 47.59 482.55 44.2 478.31H44.21Z" stroke="#BB3E03" stroke-width="8" stroke-miterlimit="10"/>
</svg>
