<svg width="1920" height="428" viewBox="0 0 1920 428" fill="none" xmlns="http://www.w3.org/2000/svg">
<path d="M1616.1 387.32L1650.09 341.86L1644.25 336.24L1646.05 330.51L1654.59 333.32L1671.8 307.29H1666.75L1668.59 298.57L1678.68 296.74L1689.24 277.92L1691.53 274.02L1683.75 270.41L1686.39 260.14L1695.41 261.81L1704.47 237.14L1659.16 226.74L1605.61 201.81L1600.19 200.29L1554.24 239.96L1538.84 241.26L1537.33 230.42L1568.33 184.68L1545.93 173.63V168H1572.02V105.91L1576.43 102.6H1584.88L1590.02 109.95L1606.92 168V171.67H1635.57L1669.74 179.02L1714.56 190.04L1725.58 163.22H1718.6L1718.23 156.61L1725.58 154.77V126.12L1720.43 125.38L1718.6 114.73H1725.58V84.2401H1719.7L1718.6 73.5801H1723.74L1720.07 16.6401H1729.25L1743.21 25.4601L1766.72 148.53L1804.2 156.61L1806.77 168L1804.56 183.06L1776.28 179.02L1778.11 208.41L1843.5 231.18L1879.14 247.72L1890.53 258.74V272.33L1869.95 278.94L1834.69 276.74L1770.03 254.7L1744.31 274.53L1743.58 282.98L1764.89 287.02L1768.93 296.94L1764.15 309.8L1751.66 311.64L1731.09 298.78L1724.48 297.68L1637.78 393.93H1621.24L1616.1 387.32ZM1616.1 387.32L1621.24 393.93" stroke="#BB3E03" stroke-width="8" stroke-miterlimit="10"/>
<path d="M1509.01 178.47L1474.76 180.49" stroke="#BB3E03" stroke-width="10" stroke-miterlimit="10"/>
<path d="M1460.68 188.73L1428.98 196.77" stroke="#BB3E03" stroke-width="10" stroke-miterlimit="10"/>
<path d="M1412.89 205.28L1387.73 219.91" stroke="#BB3E03" stroke-width="10" stroke-miterlimit="10"/>
<path d="M1363.08 237.52L1341.45 257.64" stroke="#BB3E03" stroke-width="10" stroke-miterlimit="10"/>
<path d="M1324.35 272.73L1303.22 291.85" stroke="#BB3E03" stroke-width="10" stroke-miterlimit="10"/>
<path d="M1285.61 309.96L1261.97 326.06" stroke="#BB3E03" stroke-width="10" stroke-miterlimit="10"/>
<path d="M1240.84 340.65L1211.16 348.7" stroke="#BB3E03" stroke-width="10" stroke-miterlimit="10"/>
<path d="M1186.01 358.25H1147.28" stroke="#BB3E03" stroke-width="10" stroke-miterlimit="10"/>
<path d="M1115.58 353.73L1087.92 344.67" stroke="#BB3E03" stroke-width="10" stroke-miterlimit="10"/>
<path d="M1057.73 330.51L1028.05 318.01" stroke="#BB3E03" stroke-width="10" stroke-miterlimit="10"/>
<path d="M1010.95 310.46L981.77 294.37" stroke="#BB3E03" stroke-width="10" stroke-miterlimit="10"/>
<path d="M960 285.31L930.96 270.72" stroke="#BB3E03" stroke-width="10" stroke-miterlimit="10"/>
<path d="M912.85 262.17L881.16 252.11" stroke="#BB3E03" stroke-width="10" stroke-miterlimit="10"/>
<path d="M857.02 244.06L824.32 238.53" stroke="#BB3E03" stroke-width="10" stroke-miterlimit="10"/>
<path d="M801.68 236.01L770.99 234.5" stroke="#BB3E03" stroke-width="10" stroke-miterlimit="10"/>
<path d="M743.33 235.26L709.12 243.56" stroke="#BB3E03" stroke-width="10" stroke-miterlimit="10"/>
<path d="M687.99 251.61L656.8 260.16" stroke="#BB3E03" stroke-width="10" stroke-miterlimit="10"/>
<path d="M639.2 269.72L608.01 282.8" stroke="#BB3E03" stroke-width="10" stroke-miterlimit="10"/>
<path d="M586.88 295.37L559.21 307.95" stroke="#BB3E03" stroke-width="10" stroke-miterlimit="10"/>
<path d="M541.6 318.51L518.97 330.51" stroke="#BB3E03" stroke-width="10" stroke-miterlimit="10"/>
<path d="M494.32 340.65L463.63 349.2" stroke="#BB3E03" stroke-width="10" stroke-miterlimit="10"/>
<path d="M435.96 358.25L403.77 364.29" stroke="#BB3E03" stroke-width="10" stroke-miterlimit="10"/>
<path d="M373.58 369.32L338.87 370.83" stroke="#BB3E03" stroke-width="10" stroke-miterlimit="10"/>
<path d="M305.17 370.08H271.97" stroke="#BB3E03" stroke-width="10" stroke-miterlimit="10"/>
<path d="M243.29 370.08L206.07 364.29" stroke="#BB3E03" stroke-width="10" stroke-miterlimit="10"/>
<path d="M181.92 361.27L148.22 354.23" stroke="#BB3E03" stroke-width="10" stroke-miterlimit="10"/>
<path d="M126.08 348.19L100.93 336.12" stroke="#BB3E03" stroke-width="10" stroke-miterlimit="10"/>
<path d="M68.42 338.76C75.191 338.76 80.68 333.271 80.68 326.5C80.68 319.729 75.191 314.24 68.42 314.24C61.649 314.24 56.16 319.729 56.16 326.5C56.16 333.271 61.649 338.76 68.42 338.76Z" stroke="#BB3E03" stroke-width="8" stroke-miterlimit="10"/>
<path d="M65.72 304.43C53.79 303.94 45.83 290.94 36.54 275.76C25.44 257.62 17.51 244.66 19.44 226.96C21.32 209.72 32.66 187.13 53.14 181.69C80.16 174.51 109.94 200.67 115.02 227.47C119.37 250.42 104.75 269.29 93.89 283.31C85.92 293.6 77.16 304.91 65.72 304.44V304.43Z" stroke="#BB3E03" stroke-width="8" stroke-miterlimit="10"/>
<path d="M44.21 252.56C41.03 248.58 36.09 242.41 36.16 233.95C36.26 222.11 46.14 210.73 58.29 207.79C73.29 204.16 90.11 213.77 93.5 227.41C96.74 240.43 86.41 251.81 83.44 255.08C79.96 258.91 74.03 265.44 65.33 265.64C54.86 265.88 47.59 256.8 44.2 252.56H44.21Z" stroke="#BB3E03" stroke-width="8" stroke-miterlimit="10"/>
</svg>
