<?xml version="1.0" encoding="UTF-8"?>
<svg xmlns="http://www.w3.org/2000/svg" version="1.1" viewBox="0 0 1146.94 791.21">
  <defs>
    <style>
      .cls-1 {
        fill: none;
        stroke: #000;
        stroke-miterlimit: 10;
      }
    </style>
  </defs>
  <g id="Layer_2" data-name="Layer 2">
    <polyline class="cls-1" points="133.63 266.41 921.12 266.41 957.32 277.49 999.43 297.44 1026.02 316.64 1026.02 336.59 974.31 366.88 708.37 371.31"/>
  </g>
  <g id="Layer_3" data-name="Layer 3">
    <polyline class="cls-1" points="770.75 336.05 515.88 480.1 396.21 480.1 595.67 336.05"/>
    <polyline class="cls-1" points="503.98 266.41 380.6 175.32 495.27 175.32 657.18 266.41"/>
  </g>
  <g id="Layer_4" data-name="Layer 4">
    <polyline class="cls-1" points="133.63 266.41 133.63 301.46 315.44 351.7 450.96 377.27 538.6 377.27"/>
    <polyline class="cls-1" points="204.89 266.41 207.56 232.12 176.91 136.18 176.91 110.87 230.21 110.87 373.44 266.41"/>
  </g>
  <g id="Layer_5" data-name="Layer 5">
    <polygon class="cls-1" points="396.21 292.35 395.22 336.05 400.51 342.08 429.68 342.08 434.6 337.53 434.6 292.35 429.86 287.58 400.14 287.58 396.21 292.35"/>
    <rect class="cls-1" x="450.28" y="302.34" width="14.95" height="20.05"/>
    <rect class="cls-1" x="475.53" y="302.34" width="14.95" height="20.05"/>
    <rect class="cls-1" x="500.54" y="302.34" width="14.95" height="20.05"/>
    <rect class="cls-1" x="525.4" y="302.34" width="14.95" height="20.05"/>
    <rect class="cls-1" x="550.15" y="302.34" width="14.95" height="20.05"/>
    <rect class="cls-1" x="575.13" y="302.34" width="14.95" height="20.05"/>
    <rect class="cls-1" x="599.87" y="302.34" width="14.95" height="20.05"/>
    <rect class="cls-1" x="624.73" y="302.34" width="14.95" height="20.05"/>
    <rect class="cls-1" x="649.71" y="302.34" width="14.95" height="20.05"/>
    <rect class="cls-1" x="674.56" y="302.34" width="14.95" height="20.05"/>
    <rect class="cls-1" x="699.18" y="302.34" width="14.95" height="20.05"/>
    <rect class="cls-1" x="724.53" y="302.34" width="14.95" height="20.05"/>
    <rect class="cls-1" x="749.14" y="302.34" width="14.95" height="20.05"/>
    <rect class="cls-1" x="774.24" y="302.34" width="14.95" height="20.05"/>
    <rect class="cls-1" x="798.86" y="302.34" width="14.95" height="20.05"/>
    <rect class="cls-1" x="824.08" y="302.34" width="14.95" height="20.05"/>
    <polygon class="cls-1" points="867.9 292.35 866.91 336.05 872.2 342.08 901.36 342.08 906.29 337.53 906.29 292.35 901.55 287.58 871.83 287.58 867.9 292.35"/>
    <polyline class="cls-1" points="996.2 295.96 951.21 295.96 965.15 322.4 1025.95 322.4"/>
    <line class="cls-1" x1="1008.83" y1="346.66" x2="751.05" y2="347.18"/>
    <polyline class="cls-1" points="579.84 347.48 326.45 346.76 133.63 301.46"/>
  </g>
  <g id="Layer_6" data-name="Layer 6">
    <path class="cls-1" d="M230.21,110.87c3.01-.95,6.75-2.72,8.66-6.28,1.57-2.91,1.18-5.67,1.1-8.79,0,0-.16-6.27,2.75-17.58,2.74-10.67,15.11-20,27.46-22.8,19.55-4.42,39.34,7.47,40.65,15.38.12.7.17,1.91,1.1,2.75,2.95,2.68,9.61-2.98,18.13-4.67,11.68-2.32,21.91,3.79,24.17,5.22,2.6,1.65,14.59,9.23,15.11,20.32.35,7.39-4.22,20.1-4.12,26.37.02,1.04.17,2.48,1.1,3.02,1.07.63,2.63-.28,3.44-.66,3.12-1.48,6.59-.55,11.12.66,7.71,2.06,17.5,14.65,17.03,28.84-.41,12.37-8.45,20.52-10.71,22.67"/>
    <path class="cls-1" d="M304.03,191.04c.57.47,5.16,4.19,9.7,2.68,3.6-1.2,6.2-5.35,6.82-8.88.45-2.54-.08-5.05,1.59-6.18.89-.61,1.92-.49,2.06-.48,2.94.37,4.35,5.4,5.55,8.09,3.97,8.89,14.68,12.41,16.02,12.85,12.28,4.03,24.15-3.93,26.8-5.71,7.26-4.87,11.08-11.12,12.83-14.53"/>
    <path class="cls-1" d="M928.48,97.61c-5.19,1.08-12.42.76-15.98,1.35-4.5.74-7.33,3.61-10.95,7.29-8.82,8.95-12.96,24.46-8.98,38.67.95,3.4,6.89,22.86,23.82,26.58,8.06,1.77,20.18.32,23.48-4.83,2.12-3.32,3.45-4.15,6.11-5.81.93-.58,1.78-.99,2.55-.71,1.55.56,1.61,3.5,1.94,5.5.91,5.64,4.9,9.92,7.03,11.61,5.16,4.1,13.79,4.42,19.56.71,2.4-1.54,7.43-5.78,7.64-10.08.02-.5.08-2.9,1.63-4.89.35-.44.85-1.08,1.43-1.02,1.1.11,1.6,2.68,2.04,4.28,0,0,.41,1.49,4.79,9.27,3.39,6.02,16.28,12.09,29.84,14.16,9.06,1.38,20.66,3.15,33-2.95,16.28-8.06,22.04-24,24.44-30.66,2.28-6.32,7.7-21.31,1.02-36.46-3.15-7.15-7.98-12.04-10.9-14.56-4.43-3.84-12.82-9.49-17.01-8.86-.36.05-1.62.29-2.55-.41-1.2-.91-1.13-2.84-1.12-3.67,0,0,.03-2.51-1.43-10.19-1.38-7.23-11.88-11.11-14.06-11.92-8.45-3.12-15.99-1.18-19.76-.2-5.8,1.5-8.71,2.25-10.8,4.58-.54.61-1.49,1.82-2.44,1.63-.81-.16-1.51-1.3-2.04-4.38-1.19-6.93.86-9.96.1-14.56-.7-4.22-3.3-7.04-4.99-8.86-7.62-8.23-19.85-7.51-24.65-7.23-10.43.61-17.67,4.9-23.32,8.25-8.2,4.86-16.37,9.7-19.86,19.56-2.46,6.96-1.88,14.4-.92,17.72,1.6,5.52,2.44,6.72,2.44,6.72.7,1,1.64,2.01,1.32,2.95-.32.96-1.75,1.29-2.43,1.43Z"/>
    <path class="cls-1" d="M710.95,652.31c.67.38,2.58,1.59,3.58.89,1.11-.77.46-3.46.3-4.17-1.75-7.85.49-24.52,1.79-29.81,3.37-13.71,17.73-21.09,19.08-21.76,14.73-7.32,32.34-3.47,42.03,5.07,3.82,3.36,11.71,12.13,10.13,17.29-.17.56-.91,2.56,0,3.58.93,1.03,3.08.5,3.87.3,4.59-1.19,6.69-4.88,8.94-6.86,5.37-4.7,15.65-3.07,21.46-.3,14.43,6.89,17.08,28.4,14.31,34.58-.25.56-1.37,2.81-.6,3.58.83.82,3.28-.6,4.77-1.19,5.94-2.35,13.07,1.98,16.69,4.17,11.4,6.92,14.38,20.03,14.9,22.35,3.58,15.77-4.22,28.58-7.15,32.79-2,2.88-8.47,11.89-20.57,15.8-.83.27-18.98,5.94-25.04-1.49-1.77-2.16-2.67-5.64-5.37-5.96-1.47-.17-2.65.7-4.17,1.79-5.3,3.81-7.95,5.71-9.54,6.56-5.53,2.93-14.64,1.89-18.48-2.68-2.74-3.26-1.9-7.25-5.66-9.24-.5-.26-2.38-1.26-4.17-.6-2.59.95-2.33,4.36-4.17,7.15-3.42,5.19-12.28,5.47-16.99,4.77-.66-.1-11.73-1.9-14.9-9.54-1.48-3.55-.85-7.4-2.38-7.75-.79-.18-1.65.68-3.28,2.68-3.92,4.83-4.71,7-5.96,8.35-4.29,4.62-15.31,1.1-19.67-.3-4.98-1.59-15.05-4.81-22.35-15.2-1.27-1.81-8.78-12.85-6.56-27.72,1.58-10.54,8.25-24.35,18.78-27.12,3.23-.85,11.22-2.96,16.39,0Z"/>
    <path class="cls-1" d="M39.95,533.36c1.84.37,3.71.89,4.44,0,1.02-1.24-.94-4.33-1.64-5.61-3.96-7.26-1.22-18.65,2.34-25.24,5.63-10.44,17.87-17.32,26.88-16.13,1.44.19,11.23,1.49,14.73,5.14.27.28,1.33,1.44,2.1,1.17.98-.35.9-2.75.93-3.74.17-5.1,4.43-9.35,6.54-11.45,5.79-5.77,17.03-5.44,24.54-2.8,10.65,3.74,15.33,12.65,22.67,26.65,0,0,6.02,11.47,4.67,20.57-.18,1.19-.34,1.85-.34,1.85-.27,1.09-.46,1.28-.36,1.42.47.7,5.25-3.2,9.58-3.51,6.87-.48,12.63,8.1,14.26,10.52,7.4,11.02,5.43,23.39,5.14,25.01-1.94,11.09-9.39,21.52-20.1,26.18-8.74,3.8-21.64,4.63-25.24-.7-1.35-1.99-1.68-5.26-3.27-5.38-1.07-.08-1.96,1.34-3.04,3.04-2.33,3.67-5.32,8.34-5.84,9.12-4.12,6.1-14.59,6.63-20.34,5.84-2.32-.32-10.83-1.48-15.43-7.95-3.29-4.62-3.1-9.86-5.38-10.05-.58-.05-1.56.2-4.21,4.21-3.79,5.72-3.62,7.98-5.38,10.28-5.19,6.81-19.42,3.77-20.57,3.51-8.19-1.84-13.27-6.76-16.13-9.58-9.71-9.62-11.56-21.24-11.92-23.84-1.65-11.96,1.63-27.28,8.18-28.98,2.05-.53,7.34-.49,12.15.47Z"/>
  </g>
</svg>