<svg width="1920" height="1080" viewBox="0 0 1920 1080" fill="none" xmlns="http://www.w3.org/2000/svg">
<g clip-path="url(#clip0_79_199)">
<path d="M766.5 890.841C766.64 861.911 766.76 818.121 766.5 764.721C766.04 668.681 764.91 652.611 764.38 560.171C764.1 511.161 763.74 448.981 764.38 370.461C765.26 262.411 764.47 257.071 764.38 235.861C764.29 215.111 765.01 194.111 763.32 173.331C762.91 168.241 761.79 155.741 767.95 142.791C773.07 132.021 780.28 127.141 781.83 126.131C784.59 124.331 790.56 120.551 798.95 120.581C802.74 120.591 806.08 121.391 810.06 122.891C821.84 127.351 829.58 134.361 834.59 138.621C843 145.781 852.52 151.531 861.43 158.061C877.81 170.051 893.8 182.581 910.48 194.161C912.37 195.471 916.57 198.371 921.59 202.951C925.77 206.771 931.74 212.221 936.4 220.071C939.9 225.971 938.49 226.201 945.19 245.521C949.13 256.891 950.05 258.051 951.21 263.571C953.27 273.411 952.54 281.181 952.6 283.931C953.12 308.771 952.7 332.981 953.51 358.261C953.51 358.261 954.25 403.621 954.46 459.311C954.67 514.721 955.71 510.521 955.85 560.191C956 612.651 954.78 613.061 954.92 670.791C955.02 711.231 955.63 709.451 955.85 763.341C955.97 793.291 955.76 789.911 955.85 847.561C955.95 916.361 956.23 915.221 955.85 916.971C955.85 916.971 954.42 957.851 955.39 968.801C955.41 969.001 956.87 969.581 958.1 970.981C958.84 971.821 959.77 973.171 960.48 975.741C961.11 978.001 962.36 982.511 960.74 987.911C958.88 994.141 954.4 997.521 953.07 998.491C944.64 1004.66 934.02 1002.35 924.76 1000.34C916.52 998.551 906.8 996.441 904.12 989.491C902.79 986.051 903.94 983.361 905.18 977.851C905.62 975.881 906.18 967.631 907.3 951.131C908.42 934.591 908.02 920.611 907.83 911.441C907.09 876.501 908.49 876.581 907.83 817.771C907.28 768.861 906.34 771.171 905.98 727.541C905.74 697.881 906.17 697.061 906.24 650.281C906.26 636.971 906.15 622.361 906.02 593.151C905.89 564.121 905.79 547.491 905.78 544.931C905.56 494.171 906.4 489.581 906.25 442.391C905.9 332.671 906.52 343.871 906.18 322.621C906.18 322.621 906.5 305.621 903.91 278.511C902.23 260.911 899.83 252.531 895.01 244.801C891.76 239.591 885.94 234.701 874.41 225.141C854.85 208.901 844.47 201.811 835.08 195.641C825.61 189.421 823.07 186.721 816.92 181.121C813.04 177.591 808.99 173.381 805.11 173.631C802.72 173.791 801.01 174.091 800.67 175.081C798.81 180.511 799.85 188.081 799.9 190.241C800.21 203.551 800.39 215.151 800.98 227.991C801.44 238.051 802.3 243.571 802.77 261.651C803.34 283.781 803.11 282.651 803.71 336.561C804.61 418.121 804.53 458.901 804.18 461.101C803.87 463.071 802.61 469.951 804.65 478.421C805.45 481.731 806.58 484.611 807.93 487.321C814.15 499.841 825.41 509.821 830.4 514.481C834.19 518.001 829.59 514.011 854.75 541.641C882.7 572.331 882.47 570.791 889.87 579.101C891.05 580.421 894.51 584.351 899.7 588.931C901.62 590.621 905.1 592.401 906.03 593.141" stroke="#93B5C6" stroke-width="6" stroke-miterlimit="10"/>
<path d="M805.02 888.971C804.05 870.841 802.82 843.371 802.3 809.741C801.85 780.341 802.39 775.051 802.3 729.351C802.18 668.131 802.12 637.511 801.13 624.881C799.01 597.761 803.27 570.151 798.8 543.321C798.53 541.701 797.38 535.141 799.19 534.391C801.04 533.621 805.01 539.331 807.35 542.551C814.41 552.261 823.73 560.131 831.43 569.351C835.73 574.511 855.56 598.261 870.27 614.401C878.34 623.261 890.38 635.871 906.22 650.311" stroke="#93B5C6" stroke-width="6" stroke-miterlimit="10"/>
<path d="M1350.49 883.761C1351.94 886.841 1355.84 893.921 1364.07 898.191C1365.84 899.111 1378.74 905.571 1388.69 899.041C1393.6 895.821 1395.54 890.911 1396.33 888.851C1400.14 878.861 1396.28 870.041 1393.78 859.991C1393.32 858.131 1396.74 847.331 1395.36 824.811C1392.94 785.521 1397.31 716.411 1397.66 712.491C1398.89 698.901 1397.43 658.811 1398.88 580.721C1402.34 393.691 1398.83 419.201 1400.58 377.841C1400.58 377.841 1405.14 312.671 1403.98 234.381C1403.93 230.881 1403.15 222.641 1400.58 212.311C1399.27 207.041 1395.12 190.861 1385.3 176.661C1378.74 167.181 1370.68 160.071 1348.8 146.951C1318.38 128.711 1314.12 130.551 1278.35 111.301C1269.51 106.541 1254.07 99.3613 1223.17 84.9913C1212.68 80.1113 1203.49 75.9913 1193.46 79.0513C1182.08 82.5213 1176.04 93.2713 1172.24 100.271C1163.47 116.411 1162.38 131.891 1162.05 149.501C1161.39 185.001 1164.32 202.871 1165.45 236.081C1165.66 242.331 1165.7 245.881 1165.45 284.461C1164.93 365.571 1164.6 392.261 1164.6 392.261C1168.93 485.411 1169.14 533.491 1169.14 533.761C1169.53 595.041 1165.85 646.381 1166.08 707.241C1166.08 708.941 1164.39 722.781 1160.33 725.521C1153.07 730.421 1139.03 730.171 1130.13 730.661C1110.51 731.741 1108.97 733.141 1060.19 743.691C1034.66 749.211 1033.74 747.251 995.68 754.721C978.58 758.081 964.72 761.231 955.84 763.331" stroke="#93B5C6" stroke-width="6" stroke-miterlimit="10"/>
<path d="M1198.12 815.921C1198.09 755.381 1199.2 706.811 1200.21 673.571C1200.21 673.571 1204.75 524.871 1200.63 496.891C1200.46 495.751 1200.24 490.971 1199.79 481.401C1199.54 476.131 1199.44 473.031 1200.63 472.611C1201.86 472.171 1203.48 474.981 1206.49 478.051C1210.94 482.581 1215.12 484.311 1218.21 486.001C1225.74 490.131 1238.57 500.521 1265.1 521.171C1299.69 548.081 1317.07 561.571 1321.62 563.041C1322.71 563.391 1334.96 567.311 1345.07 576.861C1347.55 579.201 1350.24 582.211 1352.19 586.491C1355.07 592.841 1354.79 598.661 1354.7 600.731C1353.92 619.411 1357.24 638.251 1355.12 656.831C1352.32 681.351 1356.42 675.591 1354.28 776.151C1353.68 804.491 1352.59 840.981 1350.49 883.761" stroke="#93B5C6" stroke-width="6" stroke-miterlimit="10"/>
<path d="M1195.94 424.931C1194.74 421.071 1195.71 418.511 1196.87 409.231C1197.59 403.461 1197.75 397.631 1198.29 391.841C1200.36 369.591 1198.29 319.821 1198.29 319.821C1199.45 270.481 1198.12 281.021 1199.35 237.861C1199.7 225.701 1197.75 199.771 1195.94 147.901C1195.94 147.901 1195.83 144.761 1196.87 133.201C1197.57 125.441 1198.05 123.711 1199.35 122.911C1203.29 120.491 1212.12 128.301 1214.96 130.721C1228.77 142.481 1229.11 135.981 1276.34 160.521C1307.28 176.601 1301.59 176.511 1322.82 186.421C1331.37 190.411 1335.85 192.091 1340.91 197.061C1353.07 209.011 1354.34 226.031 1355.1 238.931C1357.25 275.061 1356.6 293.061 1356.87 309.891C1357.53 350.281 1355.83 388.981 1355.81 433.361C1355.79 465.411 1355.18 497.461 1355.46 529.511C1355.48 531.441 1355.54 537.411 1352.98 538.381C1350.26 539.411 1346.03 534.211 1344.11 531.991C1336.56 523.271 1334.05 525.261 1308.28 507.861C1293.12 497.631 1296.19 498.431 1277.77 485.511C1270.29 480.261 1259.3 473.021 1237.32 458.551C1227.5 452.081 1218.96 443.761 1208.94 437.621C1203.52 434.301 1197.89 431.221 1195.95 424.931H1195.94Z" stroke="#93B5C6" stroke-width="6" stroke-miterlimit="10"/>
<path d="M907.81 870.841C731.53 903.691 555.24 936.541 378.96 969.401" stroke="#93B5C6" stroke-width="6" stroke-miterlimit="10"/>
<path d="M955.84 859.331C1088.56 835.661 1221.28 812.001 1354 788.331" stroke="#93B5C6" stroke-width="6" stroke-miterlimit="10"/>
<path d="M1394.8 779.041C1569.86 748.851 1744.93 718.671 1919.99 688.481" stroke="#93B5C6" stroke-width="6" stroke-miterlimit="10"/>
<path d="M85.7 899.711C110.07 852.161 192.44 848.231 211.43 847.321C249.96 845.481 259.08 854.001 297.87 847.321C327.62 842.201 349.73 832.461 363.36 826.361C411.07 804.991 418.69 787.891 449.8 773.971C471.84 764.111 506.84 755.291 559.82 766.111" stroke="#93B5C6" stroke-width="6" stroke-miterlimit="10"/>
<path d="M20 685.721C72.67 669.771 114.76 662.881 144.21 659.571C169.32 656.751 194.26 652.461 219.39 649.761C254.02 646.051 266.27 645.851 281.5 636.681C306.51 621.621 299.94 606.201 320.73 594.191C352.19 576.011 375.35 606.641 422.06 590.921C444.29 583.441 444.5 574.661 471.09 568.041C492.73 562.651 511.27 563.811 526.66 564.771C543.4 565.821 582.01 568.671 582.23 574.581C582.48 581.381 531.23 575.221 489.1 608.961C470.23 624.071 472.46 631.751 455.05 640.391C432.17 651.741 419.72 642.741 379.09 648.251C365.18 650.131 343.73 653.201 321.46 663.971C306.94 670.991 284.35 685.031 263.83 713.741" stroke="#93B5C6" stroke-width="6" stroke-miterlimit="10"/>
<path d="M1400.09 404.621C1417.31 403.701 1431.81 404.031 1442.59 404.601C1468.1 405.961 1481.13 406.761 1494.73 413.061C1509.32 419.811 1508.73 424.731 1521.5 428.561C1531.69 431.611 1540.04 430.881 1562.37 427.151C1597.8 421.231 1600.11 419.191 1615.92 417.291C1640.04 414.381 1658.92 416.211 1669.47 417.291C1695.02 419.911 1713.85 425.781 1731.47 431.381C1762.4 441.211 1773.78 448.921 1803.34 453.931C1813.45 455.641 1821.84 456.391 1827.3 456.751" stroke="#93B5C6" stroke-width="6" stroke-miterlimit="10"/>
<path d="M739.47 145.331C713.38 142.701 691.32 141.991 674.69 141.921C633.4 141.751 619.88 145.561 615.02 147.031C608.32 149.071 608.82 149.501 582.63 158.961C562.23 166.331 551.92 170.041 546.83 170.891C524.36 174.681 521.94 165.111 497.39 165.781C473.55 166.431 454.53 176.041 437.72 184.531C425.26 190.821 418.33 195.921 412.15 199.871C382.88 218.561 361.04 217.771 321.79 227.151C292.16 234.231 225.14 250.251 224.54 271.051" stroke="#93B5C6" stroke-width="6" stroke-miterlimit="10"/>
<path d="M1385.29 176.661C1397.16 173.811 1415.44 170.981 1436.9 174.501C1444.46 175.741 1446.43 176.791 1477.59 186.561C1518.82 199.491 1525.18 200.731 1531.84 201.631C1549.4 204.001 1564.72 203.411 1571.02 203.141C1586.02 202.501 1590.06 200.911 1602.67 200.131C1604.77 200.001 1627.26 198.721 1649.39 203.141C1682.17 209.691 1688.15 223.571 1729.26 237.801C1743.27 242.651 1755.05 245.361 1762.42 246.841" stroke="#93B5C6" stroke-width="6" stroke-miterlimit="10"/>
<path d="M764.21 393.041C755.69 393.941 743.41 395.101 728.58 396.041C714.14 396.951 691.75 398.361 674.33 397.551C644.83 396.171 640.33 388.891 603.5 380.971C588.75 377.801 552.5 371.011 508.56 373.431C465.42 375.811 469.29 384.061 437.73 382.471C425.27 381.841 406.59 379.641 388 390.011C386.03 391.111 373.12 398.441 374.44 403.571C374.8 404.991 376.8 408.351 406.09 409.601C426.17 410.461 430.97 409.121 446.78 409.601C452.36 409.771 464.64 411.221 488.98 414.121C521.56 418.001 527.37 419.051 532.68 420.151C546.81 423.081 558.2 426.591 565.84 429.191" stroke="#93B5C6" stroke-width="6" stroke-miterlimit="10"/>
<path d="M952.81 300.201C987.58 308.821 1015.83 310.401 1035.36 310.221C1057.62 310.011 1067.89 307.511 1090.6 307.711C1122.51 307.981 1148.35 313.301 1165.21 317.771" stroke="#93B5C6" stroke-width="6" stroke-miterlimit="10"/>
<path d="M1198.29 319.821C1204.1 336.681 1216.08 362.021 1241.25 375.501C1250.57 380.491 1259.3 382.241 1276.4 385.541C1309.73 391.981 1336.94 397.121 1356.09 400.711" stroke="#93B5C6" stroke-width="6" stroke-miterlimit="10"/>
</g>
<defs>
<clipPath id="clip0_79_199">
<rect width="1920" height="1080" fill="white"/>
</clipPath>
</defs>
</svg>
